<svg width="914" height="400" fill="none" xmlns="http://www.w3.org/2000/svg">
  <path fill="#fff" d="M0 0h914v400H0z"/>
  <path d="M421.111 201.428a9.439 9.439 0 01-.642 3.472c-.429 1.094-.998 2.042-1.709 2.844-.793.884-1.655 1.541-2.584 1.969a6.679 6.679 0 01-2.844.642c-.784 0-1.426-.095-1.928-.287a5.816 5.816 0 01-1.34-.711l-.793 3.582c-.054.228-.1.443-.136.643-.028.201-.041.36-.041.479 0 .246.086.442.26.587.182.146.387.251.615.315.228.073.483.127.765.164.283.036.538.064.766.082l-.191.861h-7.534l.192-.861c.291-.018.565-.041.82-.068.255-.028.497-.073.725-.137a1.22 1.22 0 00.67-.465c.173-.219.296-.492.369-.82l2.857-12.578c.073-.347.141-.693.205-1.039.064-.356.096-.661.096-.916 0-.511-.082-.853-.246-1.026-.155-.173-.497-.26-1.025-.26a3.12 3.12 0 00-.766.123c-.31.073-.552.133-.725.178l.205-.875c.693-.31 1.317-.547 1.873-.711.556-.173 1.03-.26 1.422-.26.638 0 1.121.165 1.449.493.329.319.534.765.616 1.34h.109a9.402 9.402 0 011.983-1.422c.71-.374 1.417-.561 2.119-.561 1.385 0 2.461.474 3.226 1.422.775.939 1.162 2.206 1.162 3.801zm-4.265 5.646a9.108 9.108 0 001.066-2.543c.255-.957.383-1.969.383-3.035 0-.483-.046-.966-.137-1.449-.082-.492-.219-.898-.41-1.217a2.086 2.086 0 00-.82-.82c-.347-.201-.802-.301-1.367-.301-.42 0-.885.128-1.395.383-.501.255-1.117.734-1.846 1.435l-1.75 7.752c.064.52.342 1.007.834 1.463.502.447 1.103.67 1.805.67.72 0 1.395-.21 2.023-.629.629-.419 1.167-.989 1.614-1.709zm17.883-8.025c0 .966-.306 1.795-.917 2.488-.601.693-1.481 1.244-2.638 1.654a20.11 20.11 0 01-2.57.752 30.27 30.27 0 01-2.872.479c0 1.44.265 2.543.793 3.308.538.757 1.322 1.135 2.352 1.135.911 0 1.713-.228 2.406-.683.702-.456 1.39-1.135 2.065-2.037l.779.574a8.583 8.583 0 01-2.734 2.666c-1.094.665-2.229.998-3.405.998-1.613 0-2.848-.451-3.705-1.354-.847-.902-1.271-2.183-1.271-3.841 0-1.149.177-2.243.533-3.282a9.63 9.63 0 011.586-2.871 7.839 7.839 0 012.474-2.051c.985-.519 2.069-.779 3.254-.779 1.313 0 2.284.269 2.912.807.639.528.958 1.207.958 2.037zm-2.516-.342c0-.355-.05-.633-.151-.834-.1-.21-.227-.365-.382-.465a1.272 1.272 0 00-.52-.205 3.815 3.815 0 00-.56-.041c-1.094 0-2.106.602-3.036 1.805-.92 1.203-1.503 2.702-1.75 4.498a36.99 36.99 0 002.161-.383c.802-.173 1.467-.396 1.996-.67.756-.392 1.317-.893 1.681-1.504.374-.62.561-1.353.561-2.201zm16.105-.273c0 .255-.036.537-.109.847a2.29 2.29 0 01-.314.752 2.084 2.084 0 01-.547.574c-.192.128-.47.192-.834.192-.493 0-.862-.123-1.108-.369-.246-.246-.369-.52-.369-.821 0-.282.068-.597.205-.943.137-.355.278-.706.424-1.053-.109 0-.292.032-.547.096a4.286 4.286 0 00-.902.342c-.356.173-.761.433-1.217.779-.447.346-.925.807-1.436 1.381L439.363 210h-2.543l1.996-8.859c.046-.219.11-.547.192-.985.091-.437.137-.761.137-.97 0-.511-.087-.853-.26-1.026-.173-.173-.52-.26-1.039-.26-.201 0-.456.037-.766.11-.31.064-.551.118-.725.164l.206-.875c.71-.319 1.339-.556 1.886-.711.547-.155 1.017-.233 1.408-.233.73 0 1.249.201 1.559.602.31.392.465.984.465 1.777h.082c1.085-.938 1.905-1.595 2.461-1.968.565-.374 1.153-.561 1.764-.561.291 0 .574.037.847.109.274.073.506.196.697.37.201.191.347.414.438.67.1.246.15.606.15 1.08zm6.659-.547l-2.407 11.293c-.428 2.023-1.33 3.677-2.707 4.963-1.376 1.285-2.793 1.927-4.252 1.927-.802 0-1.39-.155-1.763-.465-.383-.3-.575-.683-.575-1.148 0-.392.119-.738.356-1.039.237-.301.579-.451 1.025-.451.283 0 .534.064.752.191.21.128.397.287.561.479.127.155.273.364.437.629.155.264.292.492.41.683.702-.054 1.299-.528 1.791-1.422.502-.893.935-2.169 1.299-3.828l2.516-11.812h-2.666l.287-1.244h2.639l.191-.93c.219-1.057.565-2.01 1.039-2.858.474-.847 1.012-1.567 1.613-2.16a6.677 6.677 0 012.01-1.367c.757-.337 1.481-.506 2.174-.506.802 0 1.39.155 1.764.465.383.301.574.684.574 1.149 0 .391-.114.738-.342 1.039-.219.3-.565.451-1.039.451-.282 0-.529-.059-.738-.178a2.213 2.213 0 01-.561-.492 4.45 4.45 0 01-.437-.643c-.11-.2-.246-.424-.41-.67-.629.028-1.185.442-1.668 1.245-.483.802-.921 2.137-1.313 4.005l-.301 1.45h3.432l-.287 1.244h-3.404zm15.107 1.162c0 .966-.305 1.795-.916 2.488-.602.693-1.481 1.244-2.639 1.654-.847.31-1.704.561-2.57.752a30.3 30.3 0 01-2.871.479c0 1.44.264 2.543.793 3.308.538.757 1.321 1.135 2.351 1.135.912 0 1.714-.228 2.407-.683.701-.456 1.39-1.135 2.064-2.037l.779.574a8.573 8.573 0 01-2.734 2.666c-1.094.665-2.228.998-3.404.998-1.614 0-2.849-.451-3.705-1.354-.848-.902-1.272-2.183-1.272-3.841 0-1.149.178-2.243.533-3.282a9.652 9.652 0 011.586-2.871 7.854 7.854 0 012.475-2.051c.984-.519 2.069-.779 3.254-.779 1.312 0 2.283.269 2.912.807.638.528.957 1.207.957 2.037zm-2.516-.342c0-.355-.05-.633-.15-.834-.1-.21-.228-.365-.383-.465a1.268 1.268 0 00-.519-.205 3.839 3.839 0 00-.561-.041c-1.094 0-2.105.602-3.035 1.805-.921 1.203-1.504 2.702-1.75 4.498a36.97 36.97 0 002.16-.383c.802-.173 1.468-.396 1.996-.67.757-.392 1.317-.893 1.682-1.504.374-.62.56-1.353.56-2.201zm9.147 11.676c-1.595 0-2.858-.465-3.787-1.395-.921-.929-1.381-2.251-1.381-3.965 0-1.139.173-2.228.519-3.267a9.49 9.49 0 011.477-2.789 7.34 7.34 0 012.379-1.983c.966-.519 2.037-.779 3.213-.779 1.303 0 2.292.278 2.967.834.683.547 1.025 1.24 1.025 2.078 0 .629-.15 1.181-.451 1.654-.292.474-.734.711-1.326.711-.493 0-.862-.123-1.108-.369-.246-.246-.369-.519-.369-.82 0-.292.1-.688.301-1.189.2-.511.36-.921.478-1.231-.1-.246-.323-.424-.67-.533a3.297 3.297 0 00-1.08-.178c-1.239 0-2.31.725-3.213 2.174-.893 1.44-1.339 3.208-1.339 5.305 0 1.294.287 2.324.861 3.089.583.757 1.367 1.135 2.351 1.135.885 0 1.668-.237 2.352-.711.693-.474 1.354-1.144 1.982-2.009l.78.574c-.629.993-1.486 1.855-2.571 2.584-1.075.72-2.205 1.08-3.39 1.08zm10.773-.096c-.866 0-1.499-.173-1.9-.519-.401-.356-.602-.862-.602-1.518 0-.21.014-.406.041-.588.028-.191.064-.405.11-.642l2.119-9.133h-2.434l.287-1.244h2.489l.957-4.006h2.461l-.93 4.006h3.814l-.287 1.244h-3.787l-1.75 7.533c-.082.346-.15.684-.205 1.012a4.927 4.927 0 00-.082.82c0 .501.123.87.369 1.107.255.228.711.342 1.367.342.237 0 .57-.027.998-.082.429-.064.762-.141.998-.232l-.232.998c-.638.246-1.24.455-1.805.629-.565.182-1.23.273-1.996.273zm19.715-8.709a9.988 9.988 0 01-.547 3.227 8.507 8.507 0 01-1.586 2.83 8.11 8.11 0 01-2.543 2.023c-.984.502-2.128.752-3.431.752-1.513 0-2.744-.487-3.692-1.463-.939-.975-1.408-2.287-1.408-3.937 0-1.212.201-2.343.602-3.391a9.403 9.403 0 011.613-2.762 7.717 7.717 0 012.529-1.914 7.405 7.405 0 013.281-.738c1.623 0 2.89.497 3.801 1.49.921.985 1.381 2.279 1.381 3.883zm-2.789-.519c0-1.295-.232-2.265-.697-2.913-.456-.647-1.117-.97-1.983-.97-.756 0-1.472.232-2.146.697-.665.465-1.24 1.221-1.723 2.27a10.527 10.527 0 00-.82 2.652c-.173.966-.26 1.859-.26 2.68 0 1.303.223 2.292.67 2.966.456.666 1.139.998 2.051.998.811 0 1.531-.255 2.16-.765a5.804 5.804 0 001.531-1.942c.392-.765.693-1.64.903-2.625a14.76 14.76 0 00.314-3.048z" fill="#333"/>
</svg>
